<?xml version="1.0" encoding="iso-8859-1"?>
<!-- Generator: Adobe Illustrator 19.0.0, SVG Export Plug-In . SVG Version: 6.00 Build 0)  -->
<svg version="1.1" id="Capa_1" xmlns="http://www.w3.org/2000/svg" xmlns:xlink="http://www.w3.org/1999/xlink" x="0px" y="0px"
	 viewBox="0 0 487.4 487.4" style="enable-background:new 0 0 487.4 487.4;" xml:space="preserve">
<g>
	<path d="M103.4,196.55c13.4,0,24.3,10.9,24.3,24.3c0,13.4-10.9,24.3-24.3,24.3c-13.4,0-24.3-10.9-24.3-24.3
		C79.1,207.45,90,196.55,103.4,196.55z M463.4,329.25H350.9c-5.2,0-9.5,4.2-9.5,9.5v15.2c0,5.2,4.2,9.5,9.5,9.5h112.5
		c5.2,0,9.5-4.2,9.5-9.5v-15.2C472.9,333.55,468.6,329.25,463.4,329.25z M334.8,375.75c-5.2,0-9.5,4.2-9.5,9.5v15.2
		c0,5.2,4.2,9.5,9.5,9.5h112.5c5.2,0,9.5-4.2,9.5-9.5v-15.2c0-5.2-4.2-9.5-9.5-9.5H334.8z M477.9,236.35H365.4
		c-5.2,0-9.5,4.2-9.5,9.5v15.2c0,5.2,4.2,9.5,9.5,9.5h112.5c5.2,0,9.5-4.2,9.5-9.5v-15.2C487.4,240.65,483.1,236.35,477.9,236.35z
		 M447.3,282.85H334.8c-5.2,0-9.5,4.2-9.5,9.5v15.2c0,5.2,4.2,9.5,9.5,9.5h112.5c5.2,0,9.5-4.2,9.5-9.5v-15.2
		C456.7,287.05,452.5,282.85,447.3,282.85z M347.3,199.35v15.2c0,5.2,4.2,9.5,9.5,9.5h112.5c5.2,0,9.5-4.2,9.5-9.5v-15.2
		c0-5.2-4.2-9.5-9.5-9.5H356.8C351.5,189.95,347.3,194.15,347.3,199.35z M40,363.45h237.1h45.7l0,0c4.2,0,7.7-3.4,7.7-7.7v-18.8
		c0-4.2-3.4-7.7-7.7-7.7h-45.7h-196c1.1-6,1-12.5-1.1-19.2c-3.3-10.7-11.2-19.5-21.2-24.5c-8.7-4.4-17-5-24.6-3.6v-122.9
		c9.1,1.6,19.2,0.5,29.8-6.7c6.4-4.3,11.6-10.4,14.6-17.6c3.4-8.1,3.8-15.9,2.5-23.1h297.2c-1.5,6-1.7,12.5-0.1,19.2
		c3.5,15,15.6,26.9,30.7,30.2c6.6,1.4,12.9,1.2,18.7-0.3v9.5c0,4.3,3.5,7.8,7.8,7.8H454c4.3,0,7.8-3.5,7.8-7.8v-52.8
		c0-22.1-17.9-40-40-40H40c-22.1,0-40,17.9-40,40v205.8C0,345.55,17.9,363.45,40,363.45z M230.8,132.95c48.4,0,87.6,39.2,87.6,87.6
		s-39.2,87.6-87.6,87.6s-87.6-39.2-87.6-87.6S182.5,132.95,230.8,132.95z M231,160.55c-1.1,0-2.2,0-3.3,0c-3.5,0.1-4.1,0.7-4.2,4.3
		c0,1.6,0,3.2,0,4.8c0,4.7-0.1,4.6-4.6,6.3c-10.9,4-17.6,11.4-18.4,23.3c-0.6,10.5,4.8,17.6,13.5,22.8c5.3,3.2,11.2,5.1,16.9,7.6
		c2.2,1,4.3,2.1,6.2,3.6c5.4,4.5,4.4,12-2,14.8c-3.5,1.5-7.1,1.9-10.8,1.4c-5.8-0.7-11.3-2.2-16.5-4.9c-3-1.6-3.9-1.2-5,2.1
		c-0.9,2.8-1.7,5.7-2.5,8.6c-1.1,3.9-0.7,4.8,3,6.6c4.7,2.3,9.7,3.4,14.9,4.3c4,0.6,4.1,0.8,4.2,5c0,1.9,0,3.8,0.1,5.7
		c0,2.4,1.2,3.8,3.6,3.8c2.8,0.1,5.6,0.1,8.4,0c2.3-0.1,3.5-1.3,3.5-3.6c0-2.6,0.1-5.2,0-7.8c-0.1-2.6,1-4,3.6-4.7
		c5.8-1.6,10.8-4.7,14.6-9.4c10.6-12.9,6.5-31.7-8.5-40c-4.7-2.6-9.7-4.6-14.7-6.6c-2.9-1.2-5.6-2.6-8-4.5c-4.8-3.8-3.9-10,1.7-12.5
		c1.6-0.7,3.2-0.9,4.9-1c6.5-0.4,12.7,0.8,18.5,3.7c2.9,1.4,3.9,1,4.9-2.1c1-3.2,1.9-6.5,2.9-9.7c0.6-2.2-0.1-3.6-2.2-4.5
		c-3.8-1.7-7.6-2.9-11.7-3.5c-5.3-0.8-5.3-0.9-5.3-6.2C238.5,160.55,238.5,160.55,231,160.55z"/>
</g>
<g>
</g>
<g>
</g>
<g>
</g>
<g>
</g>
<g>
</g>
<g>
</g>
<g>
</g>
<g>
</g>
<g>
</g>
<g>
</g>
<g>
</g>
<g>
</g>
<g>
</g>
<g>
</g>
<g>
</g>
</svg>
